<svg xmlns="http://www.w3.org/2000/svg" width="348" height="142" viewBox="0 0 348 142" shape-rendering="crispEdges">

<defs>
<pattern id="scanlines" width="6" height="12" patternUnits="userSpaceOnUse">
<rect width="6" height="6" fill="rgba(0,0,0,0)"/>
<rect y="6" width="6" height="6" fill="rgba(0,0,0,0.07)"/>
</pattern>
<pattern id="checker" width="12" height="12" patternUnits="userSpaceOnUse">
<rect width="12" height="12" fill="#555555"/>
<rect width="6" height="6" fill="#888888"/>
<rect x="6" y="6" width="6" height="6" fill="#888888"/>
</pattern>
</defs>
<rect x="24" y="12" width="66" height="96" fill="#0000AA"/>
<rect x="42" y="42" width="6" height="6" fill="#FFFFFF"/>
<rect x="48" y="42" width="6" height="6" fill="#FFFFFF"/>
<rect x="54" y="42" width="6" height="6" fill="#FFFFFF"/>
<rect x="60" y="42" width="6" height="6" fill="#FFFFFF"/>
<rect x="42" y="48" width="6" height="6" fill="#FFFFFF"/>
<rect x="66" y="48" width="6" height="6" fill="#FFFFFF"/>
<rect x="42" y="54" width="6" height="6" fill="#FFFFFF"/>
<rect x="66" y="54" width="6" height="6" fill="#FFFFFF"/>
<rect x="42" y="60" width="6" height="6" fill="#FFFFFF"/>
<rect x="48" y="60" width="6" height="6" fill="#FFFFFF"/>
<rect x="54" y="60" width="6" height="6" fill="#FFFFFF"/>
<rect x="60" y="60" width="6" height="6" fill="#FFFFFF"/>
<rect x="42" y="66" width="6" height="6" fill="#FFFFFF"/>
<rect x="66" y="66" width="6" height="6" fill="#FFFFFF"/>
<rect x="42" y="72" width="6" height="6" fill="#FFFFFF"/>
<rect x="66" y="72" width="6" height="6" fill="#FFFFFF"/>
<rect x="42" y="78" width="6" height="6" fill="#FFFFFF"/>
<rect x="48" y="78" width="6" height="6" fill="#FFFFFF"/>
<rect x="54" y="78" width="6" height="6" fill="#FFFFFF"/>
<rect x="60" y="78" width="6" height="6" fill="#FFFFFF"/>
<rect x="42" y="24" width="6" height="6" fill="#FFFFFF"/>
<rect x="66" y="24" width="6" height="6" fill="#FFFFFF"/>
<rect x="66" y="30" width="6" height="6" fill="#6688FF"/>
<rect x="66" y="36" width="6" height="6" fill="#4466DD"/>
<rect x="54" y="90" width="6" height="6" fill="#FFFFFF"/>
<rect x="48" y="96" width="6" height="6" fill="#FFFFFF"/>
<rect x="60" y="96" width="6" height="6" fill="#FFFFFF"/>
<rect x="126" y="12" width="66" height="96" fill="#AA0000"/>
<rect x="144" y="42" width="6" height="6" fill="#FFFFFF"/>
<rect x="150" y="42" width="6" height="6" fill="#FFFFFF"/>
<rect x="156" y="42" width="6" height="6" fill="#FFFFFF"/>
<rect x="162" y="42" width="6" height="6" fill="#FFFFFF"/>
<rect x="144" y="48" width="6" height="6" fill="#FFFFFF"/>
<rect x="168" y="48" width="6" height="6" fill="#FFFFFF"/>
<rect x="144" y="54" width="6" height="6" fill="#FFFFFF"/>
<rect x="168" y="54" width="6" height="6" fill="#FFFFFF"/>
<rect x="144" y="60" width="6" height="6" fill="#FFFFFF"/>
<rect x="150" y="60" width="6" height="6" fill="#FFFFFF"/>
<rect x="156" y="60" width="6" height="6" fill="#FFFFFF"/>
<rect x="162" y="60" width="6" height="6" fill="#FFFFFF"/>
<rect x="144" y="66" width="6" height="6" fill="#FFFFFF"/>
<rect x="156" y="66" width="6" height="6" fill="#FFFFFF"/>
<rect x="144" y="72" width="6" height="6" fill="#FFFFFF"/>
<rect x="162" y="72" width="6" height="6" fill="#FFFFFF"/>
<rect x="144" y="78" width="6" height="6" fill="#FFFFFF"/>
<rect x="168" y="78" width="6" height="6" fill="#FFFFFF"/>
<rect x="150" y="24" width="6" height="6" fill="#FFFFFF"/>
<rect x="174" y="24" width="6" height="6" fill="#FFFFFF"/>
<rect x="156" y="96" width="6" height="6" fill="#FFFFFF"/>
<rect x="150" y="90" width="6" height="6" fill="#FFFFFF"/>
<rect x="162" y="90" width="6" height="6" fill="#FFFFFF"/>
<rect x="192" y="12" width="66" height="96" fill="url(#checker)"/>
<rect x="216" y="42" width="6" height="6" fill="#EEEEEE"/>
<rect x="222" y="42" width="6" height="6" fill="#EEEEEE"/>
<rect x="228" y="42" width="6" height="6" fill="#EEEEEE"/>
<rect x="210" y="48" width="6" height="6" fill="#EEEEEE"/>
<rect x="234" y="48" width="6" height="6" fill="#EEEEEE"/>
<rect x="210" y="54" width="6" height="6" fill="#EEEEEE"/>
<rect x="234" y="54" width="6" height="6" fill="#EEEEEE"/>
<rect x="210" y="60" width="6" height="6" fill="#EEEEEE"/>
<rect x="216" y="60" width="6" height="6" fill="#EEEEEE"/>
<rect x="222" y="60" width="6" height="6" fill="#EEEEEE"/>
<rect x="228" y="60" width="6" height="6" fill="#EEEEEE"/>
<rect x="234" y="60" width="6" height="6" fill="#EEEEEE"/>
<rect x="210" y="66" width="6" height="6" fill="#EEEEEE"/>
<rect x="234" y="66" width="6" height="6" fill="#EEEEEE"/>
<rect x="210" y="72" width="6" height="6" fill="#EEEEEE"/>
<rect x="234" y="72" width="6" height="6" fill="#EEEEEE"/>
<rect x="210" y="78" width="6" height="6" fill="#EEEEEE"/>
<rect x="234" y="78" width="6" height="6" fill="#EEEEEE"/>
<rect x="210" y="24" width="6" height="6" fill="#EEEEEE"/>
<rect x="234" y="24" width="6" height="6" fill="#EEEEEE"/>
<rect x="210" y="90" width="6" height="6" fill="#EEEEEE"/>
<rect x="216" y="90" width="6" height="6" fill="#EEEEEE"/>
<rect x="222" y="90" width="6" height="6" fill="#EEEEEE"/>
<rect x="228" y="90" width="6" height="6" fill="#EEEEEE"/>
<rect x="234" y="90" width="6" height="6" fill="#EEEEEE"/>
<rect x="216" y="96" width="6" height="6" fill="#EEEEEE"/>
<rect x="222" y="96" width="6" height="6" fill="#EEEEEE"/>
<rect x="228" y="96" width="6" height="6" fill="#EEEEEE"/>
<rect x="258" y="12" width="66" height="96" fill="#00AA00"/>
<rect x="282" y="42" width="6" height="6" fill="#FFFFFF"/>
<rect x="288" y="42" width="6" height="6" fill="#FFFFFF"/>
<rect x="294" y="42" width="6" height="6" fill="#FFFFFF"/>
<rect x="276" y="48" width="6" height="6" fill="#FFFFFF"/>
<rect x="300" y="48" width="6" height="6" fill="#FFFFFF"/>
<rect x="276" y="54" width="6" height="6" fill="#FFFFFF"/>
<rect x="276" y="60" width="6" height="6" fill="#FFFFFF"/>
<rect x="288" y="60" width="6" height="6" fill="#FFFFFF"/>
<rect x="294" y="60" width="6" height="6" fill="#FFFFFF"/>
<rect x="300" y="60" width="6" height="6" fill="#FFFFFF"/>
<rect x="276" y="66" width="6" height="6" fill="#FFFFFF"/>
<rect x="300" y="66" width="6" height="6" fill="#FFFFFF"/>
<rect x="276" y="72" width="6" height="6" fill="#FFFFFF"/>
<rect x="300" y="72" width="6" height="6" fill="#FFFFFF"/>
<rect x="282" y="78" width="6" height="6" fill="#FFFFFF"/>
<rect x="288" y="78" width="6" height="6" fill="#FFFFFF"/>
<rect x="294" y="78" width="6" height="6" fill="#FFFFFF"/>
<rect x="270" y="24" width="6" height="6" fill="#FFFFFF"/>
<rect x="294" y="24" width="6" height="6" fill="#FFFFFF"/>
<rect x="288" y="96" width="6" height="6" fill="#FFFFFF"/>
<rect x="282" y="90" width="6" height="6" fill="#FFFFFF"/>
<rect x="294" y="90" width="6" height="6" fill="#FFFFFF"/>
<rect x="18" y="54" width="6" height="6" fill="#4466DD"/>
<rect x="18" y="60" width="6" height="6" fill="#4466DD"/>
<rect x="12" y="66" width="6" height="6" fill="#4466DD"/>
<rect x="90" y="54" width="6" height="6" fill="#4466DD"/>
<rect x="90" y="60" width="6" height="6" fill="#4466DD"/>
<rect x="96" y="66" width="6" height="6" fill="#4466DD"/>
<rect x="192" y="60" width="6" height="6" fill="#DD4444"/>
<rect x="192" y="54" width="6" height="6" fill="#DD4444"/>
<rect x="192" y="48" width="6" height="6" fill="#DD4444"/>
<rect x="198" y="42" width="6" height="6" fill="#DD4444"/>
<rect x="204" y="42" width="6" height="6" fill="#DD4444"/>
<rect x="252" y="60" width="6" height="6" fill="#44DD44"/>
<rect x="252" y="54" width="6" height="6" fill="#44DD44"/>
<rect x="252" y="48" width="6" height="6" fill="#44DD44"/>
<rect x="246" y="42" width="6" height="6" fill="#44DD44"/>
<rect x="240" y="42" width="6" height="6" fill="#44DD44"/>
<rect x="120" y="60" width="6" height="6" fill="#DD4444"/>
<rect x="324" y="60" width="6" height="6" fill="#44DD44"/>
<rect x="36" y="108" width="6" height="6" fill="#4466DD"/>
<rect x="72" y="108" width="6" height="6" fill="#4466DD"/>
<rect x="36" y="114" width="6" height="6" fill="#4466DD"/>
<rect x="72" y="114" width="6" height="6" fill="#4466DD"/>
<rect x="36" y="120" width="6" height="6" fill="#4466DD"/>
<rect x="72" y="120" width="6" height="6" fill="#4466DD"/>
<rect x="150" y="108" width="6" height="6" fill="#DD4444"/>
<rect x="168" y="108" width="6" height="6" fill="#DD4444"/>
<rect x="150" y="114" width="6" height="6" fill="#DD4444"/>
<rect x="168" y="114" width="6" height="6" fill="#DD4444"/>
<rect x="150" y="120" width="6" height="6" fill="#DD4444"/>
<rect x="168" y="120" width="6" height="6" fill="#DD4444"/>
<rect x="216" y="108" width="6" height="6" fill="#AAAAAA"/>
<rect x="228" y="108" width="6" height="6" fill="#AAAAAA"/>
<rect x="216" y="114" width="6" height="6" fill="#AAAAAA"/>
<rect x="228" y="114" width="6" height="6" fill="#AAAAAA"/>
<rect x="216" y="120" width="6" height="6" fill="#AAAAAA"/>
<rect x="228" y="120" width="6" height="6" fill="#AAAAAA"/>
<rect x="276" y="108" width="6" height="6" fill="#44DD44"/>
<rect x="294" y="108" width="6" height="6" fill="#44DD44"/>
<rect x="276" y="114" width="6" height="6" fill="#44DD44"/>
<rect x="294" y="114" width="6" height="6" fill="#44DD44"/>
<rect x="276" y="120" width="6" height="6" fill="#44DD44"/>
<rect x="294" y="120" width="6" height="6" fill="#44DD44"/>
<rect x="24" y="12" width="66" height="96" fill="url(#scanlines)"/>
<rect x="126" y="12" width="66" height="96" fill="url(#scanlines)"/>
<rect x="192" y="12" width="66" height="96" fill="url(#scanlines)"/>
<rect x="258" y="12" width="66" height="96" fill="url(#scanlines)"/>
<rect x="12" y="10" width="324" height="100" fill="none" stroke="#222" stroke-width="1"/>
</svg>
