<svg xmlns="http://www.w3.org/2000/svg" width="301" height="133" viewBox="0 0 301 133" shape-rendering="crispEdges">
<rect width="301" height="133" fill="#0a0a0a"/>
<defs>
<pattern id="scanlines" width="7" height="14" patternUnits="userSpaceOnUse">
<rect width="7" height="7" fill="rgba(0,0,0,0)"/>
<rect y="7" width="7" height="7" fill="rgba(0,0,0,0.08)"/>
</pattern>
<pattern id="checker" width="14" height="14" patternUnits="userSpaceOnUse">
<rect width="14" height="14" fill="#666666"/>
<rect width="7" height="7" fill="#999999"/>
<rect x="7" y="7" width="7" height="7" fill="#999999"/>
</pattern>
</defs>
<rect x="12" y="12" width="277" height="81" fill="none" stroke="#333" stroke-width="2" rx="1"/>
<rect x="14" y="14" width="63" height="77" fill="#0000AA"/>
<rect x="28" y="28" width="7" height="7" fill="#FFFFFF"/>
<rect x="35" y="28" width="7" height="7" fill="#FFFFFF"/>
<rect x="42" y="28" width="7" height="7" fill="#FFFFFF"/>
<rect x="49" y="28" width="7" height="7" fill="#FFFFFF"/>
<rect x="28" y="35" width="7" height="7" fill="#FFFFFF"/>
<rect x="56" y="35" width="7" height="7" fill="#FFFFFF"/>
<rect x="28" y="42" width="7" height="7" fill="#FFFFFF"/>
<rect x="56" y="42" width="7" height="7" fill="#FFFFFF"/>
<rect x="28" y="49" width="7" height="7" fill="#FFFFFF"/>
<rect x="35" y="49" width="7" height="7" fill="#FFFFFF"/>
<rect x="42" y="49" width="7" height="7" fill="#FFFFFF"/>
<rect x="49" y="49" width="7" height="7" fill="#FFFFFF"/>
<rect x="28" y="56" width="7" height="7" fill="#FFFFFF"/>
<rect x="56" y="56" width="7" height="7" fill="#FFFFFF"/>
<rect x="28" y="63" width="7" height="7" fill="#FFFFFF"/>
<rect x="56" y="63" width="7" height="7" fill="#FFFFFF"/>
<rect x="28" y="70" width="7" height="7" fill="#FFFFFF"/>
<rect x="35" y="70" width="7" height="7" fill="#FFFFFF"/>
<rect x="42" y="70" width="7" height="7" fill="#FFFFFF"/>
<rect x="49" y="70" width="7" height="7" fill="#FFFFFF"/>
<rect x="84" y="14" width="63" height="77" fill="#AA0000"/>
<rect x="98" y="28" width="7" height="7" fill="#FFFFFF"/>
<rect x="105" y="28" width="7" height="7" fill="#FFFFFF"/>
<rect x="112" y="28" width="7" height="7" fill="#FFFFFF"/>
<rect x="119" y="28" width="7" height="7" fill="#FFFFFF"/>
<rect x="98" y="35" width="7" height="7" fill="#FFFFFF"/>
<rect x="126" y="35" width="7" height="7" fill="#FFFFFF"/>
<rect x="98" y="42" width="7" height="7" fill="#FFFFFF"/>
<rect x="126" y="42" width="7" height="7" fill="#FFFFFF"/>
<rect x="98" y="49" width="7" height="7" fill="#FFFFFF"/>
<rect x="105" y="49" width="7" height="7" fill="#FFFFFF"/>
<rect x="112" y="49" width="7" height="7" fill="#FFFFFF"/>
<rect x="119" y="49" width="7" height="7" fill="#FFFFFF"/>
<rect x="98" y="56" width="7" height="7" fill="#FFFFFF"/>
<rect x="112" y="56" width="7" height="7" fill="#FFFFFF"/>
<rect x="98" y="63" width="7" height="7" fill="#FFFFFF"/>
<rect x="119" y="63" width="7" height="7" fill="#FFFFFF"/>
<rect x="98" y="70" width="7" height="7" fill="#FFFFFF"/>
<rect x="126" y="70" width="7" height="7" fill="#FFFFFF"/>
<rect x="154" y="14" width="63" height="77" fill="url(#checker)"/>
<rect x="175" y="28" width="7" height="7" fill="#EEEEEE"/>
<rect x="182" y="28" width="7" height="7" fill="#EEEEEE"/>
<rect x="189" y="28" width="7" height="7" fill="#EEEEEE"/>
<rect x="168" y="35" width="7" height="7" fill="#EEEEEE"/>
<rect x="196" y="35" width="7" height="7" fill="#EEEEEE"/>
<rect x="168" y="42" width="7" height="7" fill="#EEEEEE"/>
<rect x="196" y="42" width="7" height="7" fill="#EEEEEE"/>
<rect x="168" y="49" width="7" height="7" fill="#EEEEEE"/>
<rect x="175" y="49" width="7" height="7" fill="#EEEEEE"/>
<rect x="182" y="49" width="7" height="7" fill="#EEEEEE"/>
<rect x="189" y="49" width="7" height="7" fill="#EEEEEE"/>
<rect x="196" y="49" width="7" height="7" fill="#EEEEEE"/>
<rect x="168" y="56" width="7" height="7" fill="#EEEEEE"/>
<rect x="196" y="56" width="7" height="7" fill="#EEEEEE"/>
<rect x="168" y="63" width="7" height="7" fill="#EEEEEE"/>
<rect x="196" y="63" width="7" height="7" fill="#EEEEEE"/>
<rect x="168" y="70" width="7" height="7" fill="#EEEEEE"/>
<rect x="196" y="70" width="7" height="7" fill="#EEEEEE"/>
<rect x="224" y="14" width="63" height="77" fill="#00AA00"/>
<rect x="245" y="28" width="7" height="7" fill="#FFFFFF"/>
<rect x="252" y="28" width="7" height="7" fill="#FFFFFF"/>
<rect x="259" y="28" width="7" height="7" fill="#FFFFFF"/>
<rect x="238" y="35" width="7" height="7" fill="#FFFFFF"/>
<rect x="266" y="35" width="7" height="7" fill="#FFFFFF"/>
<rect x="238" y="42" width="7" height="7" fill="#FFFFFF"/>
<rect x="238" y="49" width="7" height="7" fill="#FFFFFF"/>
<rect x="252" y="49" width="7" height="7" fill="#FFFFFF"/>
<rect x="259" y="49" width="7" height="7" fill="#FFFFFF"/>
<rect x="266" y="49" width="7" height="7" fill="#FFFFFF"/>
<rect x="238" y="56" width="7" height="7" fill="#FFFFFF"/>
<rect x="266" y="56" width="7" height="7" fill="#FFFFFF"/>
<rect x="238" y="63" width="7" height="7" fill="#FFFFFF"/>
<rect x="266" y="63" width="7" height="7" fill="#FFFFFF"/>
<rect x="245" y="70" width="7" height="7" fill="#FFFFFF"/>
<rect x="252" y="70" width="7" height="7" fill="#FFFFFF"/>
<rect x="259" y="70" width="7" height="7" fill="#FFFFFF"/>
<rect x="14" y="14" width="273" height="77" fill="url(#scanlines)"/>
<line x1="84" y1="95" x2="287" y2="95" stroke="#00AA00" stroke-width="2"/>
<line x1="84" y1="91" x2="84" y2="95" stroke="#00AA00" stroke-width="2"/>
<line x1="287" y1="91" x2="287" y2="95" stroke="#00AA00" stroke-width="2"/>
<text x="185.5" y="111" text-anchor="middle" fill="#00AA00" font-family="monospace, Courier New" font-size="11" font-weight="bold">COMPOSITING TRIAD&#x2122;</text>
</svg>
